<svg width="16" height="17" viewBox="0 0 16 17" fill="none" xmlns="http://www.w3.org/2000/svg">
<g clip-path="url(#clip0_101_6)">
<path fill-rule="evenodd" clip-rule="evenodd" d="M1.88498 0.636002C2.05996 0.461291 2.27006 0.32576 2.50138 0.238392C2.7327 0.151024 2.97994 0.113813 3.22672 0.129225C3.47351 0.144637 3.7142 0.212321 3.93285 0.32779C4.15149 0.443259 4.34311 0.603878 4.49498 0.799002L6.28998 3.105C6.61898 3.528 6.73498 4.079 6.60498 4.599L6.05798 6.789C6.0297 6.90243 6.03123 7.02125 6.06242 7.13391C6.09361 7.24658 6.1534 7.34926 6.23598 7.432L8.69298 9.889C8.77582 9.97176 8.87868 10.0316 8.99153 10.0628C9.10439 10.094 9.22341 10.0955 9.33698 10.067L11.526 9.52C11.7826 9.45584 12.0504 9.45086 12.3093 9.50543C12.5681 9.56 12.8111 9.6727 13.02 9.835L15.326 11.629C16.155 12.274 16.231 13.499 15.489 14.24L14.455 15.274C13.715 16.014 12.609 16.339 11.578 15.976C8.93917 15.0475 6.54326 13.5368 4.56798 11.556C2.58727 9.58102 1.07659 7.18546 0.147983 4.547C-0.214017 3.517 0.110983 2.41 0.850983 1.67L1.88498 0.636002Z" fill="#F8F8F8"/>
</g>
<defs>
<clipPath id="clip0_101_6">
<rect width="16" height="16" fill="white" transform="translate(0 0.125)"/>
</clipPath>
</defs>
</svg>
